<mxfile host="app.diagrams.net" modified="2023-04-30T02:37:11.751Z" agent="Mozilla/5.0 (Windows NT 10.0; Win64; x64) AppleWebKit/537.36 (KHTML, like Gecko) Chrome/109.0.0.0 Safari/537.36" version="21.2.3" etag="0MXakZrb9DQSEZbnLycR" type="github">
  <diagram name="第 1 页" id="49O_F_yCy1H9jbOfkMmK">
    <mxGraphModel>
      <root>
        <mxCell id="0" />
        <mxCell id="1" parent="0" />
      </root>
    </mxGraphModel>
  </diagram>
</mxfile>
